<svg height='100px' width='100px'  fill="#000000" xmlns:dc="http://purl.org/dc/elements/1.1/" xmlns:cc="http://creativecommons.org/ns#" xmlns:rdf="http://www.w3.org/1999/02/22-rdf-syntax-ns#" xmlns:svg="http://www.w3.org/2000/svg" xmlns="http://www.w3.org/2000/svg" xmlns:sodipodi="http://sodipodi.sourceforge.net/DTD/sodipodi-0.dtd" xmlns:inkscape="http://www.inkscape.org/namespaces/inkscape" viewBox="0 0 16.933333 16.933333" version="1.1" x="0px" y="0px"><g transform="translate(0,-280.06667)" style="" display="inline"><path style="color:#000000;font-style:normal;font-variant:normal;font-weight:normal;font-stretch:normal;font-size:medium;line-height:normal;font-family:sans-serif;font-variant-ligatures:normal;font-variant-position:normal;font-variant-caps:normal;font-variant-numeric:normal;font-variant-alternates:normal;font-feature-settings:normal;text-indent:0;text-align:start;text-decoration:none;text-decoration-line:none;text-decoration-style:solid;text-decoration-color:#000000;letter-spacing:normal;word-spacing:normal;text-transform:none;writing-mode:lr-tb;direction:ltr;text-orientation:mixed;dominant-baseline:auto;baseline-shift:baseline;text-anchor:start;white-space:normal;shape-padding:0;clip-rule:nonzero;display:inline;overflow:visible;visibility:visible;opacity:1;isolation:auto;mix-blend-mode:normal;color-interpolation:sRGB;color-interpolation-filters:linearRGB;solid-color:#000000;solid-opacity:1;vector-effect:none;fill:#000000;fill-opacity:1;fill-rule:evenodd;stroke:none;stroke-width:2.00000024;stroke-linecap:butt;stroke-linejoin:miter;stroke-miterlimit:4;stroke-dasharray:none;stroke-dashoffset:0;stroke-opacity:1;color-rendering:auto;image-rendering:auto;shape-rendering:auto;text-rendering:auto;enable-background:accumulate" d="M 44 1 C 40.14322 1 37 4.1432236 37 8 C 37 11.856776 40.14322 15 44 15 C 47.85678 15 51 11.856776 51 8 C 51 4.1432236 47.85678 1 44 1 z M 20 5 C 18.347094 5 17 6.3470961 17 8 C 17 9.6529039 18.347094 11 20 11 C 21.652906 11 23 9.6529039 23 8 C 23 6.3470961 21.652906 5 20 5 z M 20 25 C 16.143252 25 13 28.143255 13 32 C 13 35.856745 16.143252 39 20 39 C 23.856748 39 27 35.856745 27 32 C 27 28.143255 23.856748 25 20 25 z M 44 29 C 42.347094 29 41 30.347096 41 32 C 41 33.652904 42.347094 35 44 35 C 45.652906 35 47 33.652904 47 32 C 47 30.347096 45.652906 29 44 29 z M 20 49 C 16.143275 49 13 52.143279 13 56 C 13 59.856721 16.143275 63 20 63 C 23.856725 63 27 59.856721 27 56 C 27 52.143279 23.856725 49 20 49 z M 44 53 C 42.347094 53 41 54.347096 41 56 C 41 57.652904 42.347094 59 44 59 C 45.652906 59 47 57.652904 47 56 C 47 54.347096 45.652906 53 44 53 z " transform="matrix(0.26458333,0,0,0.26458333,0,280.06667)"></path></g></svg>